<svg xmlns="http://www.w3.org/2000/svg" viewBox="0 0 100 100" width="500" height="500" class="illustration"><defs><style>.cls-1{fill:#9c9c9c;stroke:#221f20;stroke-miterlimit:10;}.cls-1,.cls-2{stroke-width:1.5px;}.cls-2{fill:#ffd44d;stroke:#231f20;stroke-linejoin:bevel;}</style></defs><g id="Layer_2" data-name="Layer 2"><polyline class="cls-1" points="47.84 49.69 73.33 24.19 80.33 31.19 22.19 89.32 15.2 82.33 41.46 56.07"></polyline><rect class="cls-2" x="69.41" y="26.67" width="9.89" height="7" transform="translate(43.11 -43.74) rotate(45)"></rect><path class="cls-2" d="M33.52,36.4c-5.37.1-6.11,6.24-6.11,6.24s-.74-6.14-6.11-6.24c5.37-.1,6.11-6.23,6.11-6.23S28.15,36.3,33.52,36.4Z"></path><path class="cls-2" d="M89.59,59.53c-11.43.2-13,13.26-13,13.26S75,59.73,63.6,59.53c11.42-.21,13-13.27,13-13.27S78.16,59.32,89.59,59.53Z"></path><path class="cls-2" d="M35.63,66.7c-7.23.13-8.22,8.39-8.22,8.39s-1-8.26-8.23-8.39c7.23-.14,8.23-8.4,8.23-8.4S28.4,66.56,35.63,66.7Z"></path></g></svg>